# xmcd
#
# Track frame offsets:
#	150
#	18521
#	34956
#	53698
#	73275
#	91656
#	105752
#	123338
#	140621
#	156435
#	173484
#	184039
#	199681
#	214384
#
# Disc length: 3067 seconds
#
# Revision: 1
# Processed by: cddbd v1.5.1PL2 Copyright (c) Steve Scherf et al.
# Submitted via: audiograbber 1.83.01
#
DISCID=bf0bf90e
DTITLE=Star Disc - SD084
DYEAR=1900
DGENRE=
TTITLE0=Lonestar - I'm Already There
TTITLE1=Messina, Jo Dee - Downtime
TTITLE2=Wills, Mark - Loving Every Minute
TTITLE3=SHeDaisy - Still Holding Out For You
TTITLE4=Diamond Rio - Sweet Summer
TTITLE5=Alabama - Will You Marry Me
TTITLE6=Worley, Darryl - Second Wind
TTITLE7=Shelton, Blake - Austin
TTITLE8=McCann, Lila - Come A Little Closer
TTITLE9=Rich, John - Forever Loving You
TTITLE10=Robison, Charlie - I Want You Bad
TTITLE11=Ketchum, Hal - She Is
TTITLE12=Thomson, Cyndi - What I Really Meant To Say
TTITLE13=3 Of Hearts - Love Is Enough
EXTD=
EXTT0=
EXTT1=
EXTT2=
EXTT3=
EXTT4=
EXTT5=
EXTT6=
EXTT7=
EXTT8=
EXTT9=
EXTT10=
EXTT11=
EXTT12=
EXTT13=
PLAYORDER=
